<?xml version="1.0" encoding="UTF-8" standalone="no"?>
<!DOCTYPE svg PUBLIC "-//W3C//DTD SVG 1.1//EN"
 "http://www.w3.org/Graphics/SVG/1.1/DTD/svg11.dtd">
<!-- Generated by graphviz version 2.47.0 (20210316.0004)
 -->
<!-- Title: dependencies Pages: 1 -->
<svg width="737pt" height="211pt"
 viewBox="0.00 0.00 737.00 211.00" xmlns="http://www.w3.org/2000/svg" xmlns:xlink="http://www.w3.org/1999/xlink">
<g id="graph0" class="graph" transform="scale(1 1) rotate(0) translate(4 207)">
<title>dependencies</title>
<polygon fill="white" stroke="transparent" points="-4,4 -4,-207 733,-207 733,4 -4,4"/>
<text text-anchor="start" x="343.51" y="-42.4" font-family="Times-12" font-weight="bold" font-size="14.00">Legend</text>
<polygon fill="#ffffb3" stroke="transparent" points="130.5,-10 130.5,-30 150.5,-30 150.5,-10 130.5,-10"/>
<text text-anchor="start" x="154.13" y="-15.4" font-family="Times-12" font-size="14.00"> &#160;Declarations</text>
<polygon fill="#8dd3c7" stroke="transparent" points="243.5,-10 243.5,-30 263.5,-30 263.5,-10 243.5,-10"/>
<text text-anchor="start" x="267.23" y="-15.4" font-family="Times-12" font-size="14.00"> &#160;Module</text>
<polygon fill="#80b1d3" stroke="transparent" points="329.5,-10 329.5,-30 349.5,-30 349.5,-10 329.5,-10"/>
<text text-anchor="start" x="353.28" y="-15.4" font-family="Times-12" font-size="14.00"> &#160;Bootstrap</text>
<polygon fill="#fdb462" stroke="transparent" points="426.5,-10 426.5,-30 446.5,-30 446.5,-10 426.5,-10"/>
<text text-anchor="start" x="450.17" y="-15.4" font-family="Times-12" font-size="14.00"> &#160;Providers</text>
<polygon fill="#fb8072" stroke="transparent" points="522.5,-10 522.5,-30 542.5,-30 542.5,-10 522.5,-10"/>
<text text-anchor="start" x="546.23" y="-15.4" font-family="Times-12" font-size="14.00"> &#160;Exports</text>
<g id="clust1" class="cluster">
<title>cluster_AuthModule</title>
<polygon fill="none" stroke="black" stroke-dasharray="1,5" points="8,-70 8,-195 721,-195 721,-70 8,-70"/>
</g>
<g id="clust2" class="cluster">
<title>cluster_AuthModule_declarations</title>
<polygon fill="none" stroke="black" points="264,-78 264,-130 713,-130 713,-78 264,-78"/>
</g>
<g id="clust6" class="cluster">
<title>cluster_AuthModule_imports</title>
<polygon fill="none" stroke="black" points="16,-78 16,-130 256,-130 256,-78 16,-78"/>
</g>
<!-- LoginComponent -->
<g id="node1" class="node">
<title>LoginComponent</title>
<polygon fill="#ffffb3" stroke="black" points="705.28,-122 590.72,-122 590.72,-86 705.28,-86 705.28,-122"/>
<text text-anchor="middle" x="648" y="-99.8" font-family="Times,serif" font-size="14.00">LoginComponent</text>
</g>
<!-- AuthModule -->
<g id="node4" class="node">
<title>AuthModule</title>
<polygon fill="#8dd3c7" stroke="black" points="376.55,-187 373.55,-191 352.55,-191 349.55,-187 289.45,-187 289.45,-151 376.55,-151 376.55,-187"/>
<text text-anchor="middle" x="333" y="-164.8" font-family="Times,serif" font-size="14.00">AuthModule</text>
</g>
<!-- LoginComponent&#45;&gt;AuthModule -->
<g id="edge1" class="edge">
<title>LoginComponent&#45;&gt;AuthModule</title>
<path fill="none" stroke="black" d="M648,-122.28C648,-143.32 648,-175 648,-175 648,-175 386.8,-175 386.8,-175"/>
<polygon fill="black" stroke="black" points="386.8,-171.5 376.8,-175 386.8,-178.5 386.8,-171.5"/>
</g>
<!-- PasswordresetComponent -->
<g id="node2" class="node">
<title>PasswordresetComponent</title>
<polygon fill="#ffffb3" stroke="black" points="572.91,-122 411.09,-122 411.09,-86 572.91,-86 572.91,-122"/>
<text text-anchor="middle" x="492" y="-99.8" font-family="Times,serif" font-size="14.00">PasswordresetComponent</text>
</g>
<!-- PasswordresetComponent&#45;&gt;AuthModule -->
<g id="edge2" class="edge">
<title>PasswordresetComponent&#45;&gt;AuthModule</title>
<path fill="none" stroke="black" d="M492,-122.02C492,-139.37 492,-163 492,-163 492,-163 386.87,-163 386.87,-163"/>
<polygon fill="black" stroke="black" points="386.87,-159.5 376.87,-163 386.87,-166.5 386.87,-159.5"/>
</g>
<!-- SignupComponent -->
<g id="node3" class="node">
<title>SignupComponent</title>
<polygon fill="#ffffb3" stroke="black" points="393.51,-122 272.49,-122 272.49,-86 393.51,-86 393.51,-122"/>
<text text-anchor="middle" x="333" y="-99.8" font-family="Times,serif" font-size="14.00">SignupComponent</text>
</g>
<!-- SignupComponent&#45;&gt;AuthModule -->
<g id="edge3" class="edge">
<title>SignupComponent&#45;&gt;AuthModule</title>
<path fill="none" stroke="black" d="M333,-122.11C333,-122.11 333,-140.99 333,-140.99"/>
<polygon fill="black" stroke="black" points="329.5,-140.99 333,-150.99 336.5,-140.99 329.5,-140.99"/>
</g>
<!-- AuthRoutingModule -->
<g id="node5" class="node">
<title>AuthRoutingModule</title>
<polygon fill="#8dd3c7" stroke="black" points="248.17,-122 245.17,-126 224.17,-126 221.17,-122 115.83,-122 115.83,-86 248.17,-86 248.17,-122"/>
<text text-anchor="middle" x="182" y="-99.8" font-family="Times,serif" font-size="14.00">AuthRoutingModule</text>
</g>
<!-- AuthRoutingModule&#45;&gt;AuthModule -->
<g id="edge4" class="edge">
<title>AuthRoutingModule&#45;&gt;AuthModule</title>
<path fill="none" stroke="black" d="M182,-122.02C182,-139.37 182,-163 182,-163 182,-163 279.32,-163 279.32,-163"/>
<polygon fill="black" stroke="black" points="279.32,-166.5 289.32,-163 279.32,-159.5 279.32,-166.5"/>
</g>
<!-- UiModule -->
<g id="node6" class="node">
<title>UiModule</title>
<polygon fill="#8dd3c7" stroke="black" points="97.55,-122 94.55,-126 73.55,-126 70.55,-122 24.45,-122 24.45,-86 97.55,-86 97.55,-122"/>
<text text-anchor="middle" x="61" y="-99.8" font-family="Times,serif" font-size="14.00">UiModule</text>
</g>
<!-- UiModule&#45;&gt;AuthModule -->
<g id="edge5" class="edge">
<title>UiModule&#45;&gt;AuthModule</title>
<path fill="none" stroke="black" d="M61,-122.28C61,-143.32 61,-175 61,-175 61,-175 279.3,-175 279.3,-175"/>
<polygon fill="black" stroke="black" points="279.3,-178.5 289.3,-175 279.3,-171.5 279.3,-178.5"/>
</g>
</g>
</svg>
