<?xml version="1.0" encoding="UTF-8" standalone="no"?>
<!DOCTYPE svg PUBLIC "-//W3C//DTD SVG 1.1//EN"
 "http://www.w3.org/Graphics/SVG/1.1/DTD/svg11.dtd">
<!-- Generated by graphviz version 2.47.0 (20210316.0004)
 -->
<!-- Title: dependencies Pages: 1 -->
<svg width="830pt" height="211pt"
 viewBox="0.00 0.00 830.00 211.00" xmlns="http://www.w3.org/2000/svg" xmlns:xlink="http://www.w3.org/1999/xlink">
<g id="graph0" class="graph" transform="scale(1 1) rotate(0) translate(4 207)">
<title>dependencies</title>
<polygon fill="white" stroke="transparent" points="-4,4 -4,-207 826,-207 826,4 -4,4"/>
<text text-anchor="start" x="390.01" y="-42.4" font-family="Times-12" font-weight="bold" font-size="14.00">Legend</text>
<polygon fill="#ffffb3" stroke="transparent" points="177,-10 177,-30 197,-30 197,-10 177,-10"/>
<text text-anchor="start" x="200.63" y="-15.4" font-family="Times-12" font-size="14.00"> &#160;Declarations</text>
<polygon fill="#8dd3c7" stroke="transparent" points="290,-10 290,-30 310,-30 310,-10 290,-10"/>
<text text-anchor="start" x="313.73" y="-15.4" font-family="Times-12" font-size="14.00"> &#160;Module</text>
<polygon fill="#80b1d3" stroke="transparent" points="376,-10 376,-30 396,-30 396,-10 376,-10"/>
<text text-anchor="start" x="399.78" y="-15.4" font-family="Times-12" font-size="14.00"> &#160;Bootstrap</text>
<polygon fill="#fdb462" stroke="transparent" points="473,-10 473,-30 493,-30 493,-10 473,-10"/>
<text text-anchor="start" x="496.67" y="-15.4" font-family="Times-12" font-size="14.00"> &#160;Providers</text>
<polygon fill="#fb8072" stroke="transparent" points="569,-10 569,-30 589,-30 589,-10 569,-10"/>
<text text-anchor="start" x="592.73" y="-15.4" font-family="Times-12" font-size="14.00"> &#160;Exports</text>
<g id="clust1" class="cluster">
<title>cluster_PagesModule</title>
<polygon fill="none" stroke="black" stroke-dasharray="1,5" points="8,-70 8,-195 814,-195 814,-70 8,-70"/>
</g>
<g id="clust2" class="cluster">
<title>cluster_PagesModule_declarations</title>
<polygon fill="none" stroke="black" points="470,-78 470,-130 806,-130 806,-78 470,-78"/>
</g>
<g id="clust5" class="cluster">
<title>cluster_PagesModule_imports</title>
<polygon fill="none" stroke="black" points="16,-78 16,-130 462,-130 462,-78 16,-78"/>
</g>
<!-- CreateUserComponent -->
<g id="node1" class="node">
<title>CreateUserComponent</title>
<polygon fill="#ffffb3" stroke="black" points="798.29,-122 653.71,-122 653.71,-86 798.29,-86 798.29,-122"/>
<text text-anchor="middle" x="726" y="-99.8" font-family="Times,serif" font-size="14.00">CreateUserComponent</text>
</g>
<!-- PagesModule -->
<g id="node3" class="node">
<title>PagesModule</title>
<polygon fill="#8dd3c7" stroke="black" points="389.21,-187 386.21,-191 365.21,-191 362.21,-187 296.79,-187 296.79,-151 389.21,-151 389.21,-187"/>
<text text-anchor="middle" x="343" y="-164.8" font-family="Times,serif" font-size="14.00">PagesModule</text>
</g>
<!-- CreateUserComponent&#45;&gt;PagesModule -->
<g id="edge1" class="edge">
<title>CreateUserComponent&#45;&gt;PagesModule</title>
<path fill="none" stroke="black" d="M726,-122.28C726,-143.32 726,-175 726,-175 726,-175 399.2,-175 399.2,-175"/>
<polygon fill="black" stroke="black" points="399.2,-171.5 389.2,-175 399.2,-178.5 399.2,-171.5"/>
</g>
<!-- ManageUsersComponent -->
<g id="node2" class="node">
<title>ManageUsersComponent</title>
<polygon fill="#ffffb3" stroke="black" points="636.29,-122 477.71,-122 477.71,-86 636.29,-86 636.29,-122"/>
<text text-anchor="middle" x="557" y="-99.8" font-family="Times,serif" font-size="14.00">ManageUsersComponent</text>
</g>
<!-- ManageUsersComponent&#45;&gt;PagesModule -->
<g id="edge2" class="edge">
<title>ManageUsersComponent&#45;&gt;PagesModule</title>
<path fill="none" stroke="black" d="M557,-122.02C557,-139.37 557,-163 557,-163 557,-163 399.17,-163 399.17,-163"/>
<polygon fill="black" stroke="black" points="399.17,-159.5 389.17,-163 399.17,-166.5 399.17,-159.5"/>
</g>
<!-- IconsModule -->
<g id="node4" class="node">
<title>IconsModule</title>
<polygon fill="#8dd3c7" stroke="black" points="453.87,-122 450.87,-126 429.87,-126 426.87,-122 364.13,-122 364.13,-86 453.87,-86 453.87,-122"/>
<text text-anchor="middle" x="409" y="-99.8" font-family="Times,serif" font-size="14.00">IconsModule</text>
</g>
<!-- IconsModule&#45;&gt;PagesModule -->
<g id="edge3" class="edge">
<title>IconsModule&#45;&gt;PagesModule</title>
<path fill="none" stroke="black" d="M376.58,-122.11C376.58,-122.11 376.58,-140.99 376.58,-140.99"/>
<polygon fill="black" stroke="black" points="373.08,-140.99 376.58,-150.99 380.08,-140.99 373.08,-140.99"/>
</g>
<!-- PagesRoutingModule -->
<g id="node5" class="node">
<title>PagesRoutingModule</title>
<polygon fill="#8dd3c7" stroke="black" points="345.82,-122 342.82,-126 321.82,-126 318.82,-122 208.18,-122 208.18,-86 345.82,-86 345.82,-122"/>
<text text-anchor="middle" x="277" y="-99.8" font-family="Times,serif" font-size="14.00">PagesRoutingModule</text>
</g>
<!-- PagesRoutingModule&#45;&gt;PagesModule -->
<g id="edge4" class="edge">
<title>PagesRoutingModule&#45;&gt;PagesModule</title>
<path fill="none" stroke="black" d="M321.28,-122.11C321.28,-122.11 321.28,-140.99 321.28,-140.99"/>
<polygon fill="black" stroke="black" points="317.78,-140.99 321.28,-150.99 324.78,-140.99 317.78,-140.99"/>
</g>
<!-- UIModule -->
<g id="node6" class="node">
<title>UIModule</title>
<polygon fill="#8dd3c7" stroke="black" points="190.32,-122 187.32,-126 166.32,-126 163.32,-122 115.68,-122 115.68,-86 190.32,-86 190.32,-122"/>
<text text-anchor="middle" x="153" y="-99.8" font-family="Times,serif" font-size="14.00">UIModule</text>
</g>
<!-- UIModule&#45;&gt;PagesModule -->
<g id="edge5" class="edge">
<title>UIModule&#45;&gt;PagesModule</title>
<path fill="none" stroke="black" d="M153,-122.02C153,-139.37 153,-163 153,-163 153,-163 286.52,-163 286.52,-163"/>
<polygon fill="black" stroke="black" points="286.52,-166.5 296.52,-163 286.52,-159.5 286.52,-166.5"/>
</g>
<!-- UiModule -->
<g id="node7" class="node">
<title>UiModule</title>
<polygon fill="#8dd3c7" stroke="black" points="97.55,-122 94.55,-126 73.55,-126 70.55,-122 24.45,-122 24.45,-86 97.55,-86 97.55,-122"/>
<text text-anchor="middle" x="61" y="-99.8" font-family="Times,serif" font-size="14.00">UiModule</text>
</g>
<!-- UiModule&#45;&gt;PagesModule -->
<g id="edge6" class="edge">
<title>UiModule&#45;&gt;PagesModule</title>
<path fill="none" stroke="black" d="M61,-122.28C61,-143.32 61,-175 61,-175 61,-175 286.75,-175 286.75,-175"/>
<polygon fill="black" stroke="black" points="286.75,-178.5 296.75,-175 286.75,-171.5 286.75,-178.5"/>
</g>
</g>
</svg>
