<?xml version="1.0" encoding="UTF-8" standalone="no"?>
<!DOCTYPE svg PUBLIC "-//W3C//DTD SVG 1.1//EN"
 "http://www.w3.org/Graphics/SVG/1.1/DTD/svg11.dtd">
<!-- Generated by graphviz version 2.47.0 (20210316.0004)
 -->
<!-- Title: dependencies Pages: 1 -->
<svg width="1321pt" height="284pt"
 viewBox="0.00 0.00 1321.00 284.00" xmlns="http://www.w3.org/2000/svg" xmlns:xlink="http://www.w3.org/1999/xlink">
<g id="graph0" class="graph" transform="scale(1 1) rotate(0) translate(4 280)">
<title>dependencies</title>
<polygon fill="white" stroke="transparent" points="-4,4 -4,-280 1317,-280 1317,4 -4,4"/>
<text text-anchor="start" x="635.51" y="-42.4" font-family="Times-12" font-weight="bold" font-size="14.00">Legend</text>
<polygon fill="#ffffb3" stroke="transparent" points="422.5,-10 422.5,-30 442.5,-30 442.5,-10 422.5,-10"/>
<text text-anchor="start" x="446.13" y="-15.4" font-family="Times-12" font-size="14.00"> &#160;Declarations</text>
<polygon fill="#8dd3c7" stroke="transparent" points="535.5,-10 535.5,-30 555.5,-30 555.5,-10 535.5,-10"/>
<text text-anchor="start" x="559.23" y="-15.4" font-family="Times-12" font-size="14.00"> &#160;Module</text>
<polygon fill="#80b1d3" stroke="transparent" points="621.5,-10 621.5,-30 641.5,-30 641.5,-10 621.5,-10"/>
<text text-anchor="start" x="645.28" y="-15.4" font-family="Times-12" font-size="14.00"> &#160;Bootstrap</text>
<polygon fill="#fdb462" stroke="transparent" points="718.5,-10 718.5,-30 738.5,-30 738.5,-10 718.5,-10"/>
<text text-anchor="start" x="742.17" y="-15.4" font-family="Times-12" font-size="14.00"> &#160;Providers</text>
<polygon fill="#fb8072" stroke="transparent" points="814.5,-10 814.5,-30 834.5,-30 834.5,-10 814.5,-10"/>
<text text-anchor="start" x="838.23" y="-15.4" font-family="Times-12" font-size="14.00"> &#160;Exports</text>
<g id="clust1" class="cluster">
<title>cluster_AppModule</title>
<polygon fill="none" stroke="black" stroke-dasharray="1,5" points="8,-70 8,-268 1305,-268 1305,-70 8,-70"/>
</g>
<g id="clust2" class="cluster">
<title>cluster_AppModule_declarations</title>
<polygon fill="none" stroke="black" points="937,-78 937,-130 1297,-130 1297,-78 937,-78"/>
</g>
<g id="clust5" class="cluster">
<title>cluster_AppModule_imports</title>
<polygon fill="none" stroke="black" points="552,-78 552,-130 929,-130 929,-78 552,-78"/>
</g>
<g id="clust7" class="cluster">
<title>cluster_AppModule_bootstrap</title>
<polygon fill="none" stroke="black" points="602,-208 602,-260 726,-260 726,-208 602,-208"/>
</g>
<g id="clust8" class="cluster">
<title>cluster_AppModule_providers</title>
<polygon fill="none" stroke="black" points="16,-78 16,-130 544,-130 544,-78 16,-78"/>
</g>
<!-- AppComponent -->
<g id="node1" class="node">
<title>AppComponent</title>
<polygon fill="#ffffb3" stroke="black" points="1288.94,-122 1183.06,-122 1183.06,-86 1288.94,-86 1288.94,-122"/>
<text text-anchor="middle" x="1236" y="-99.8" font-family="Times,serif" font-size="14.00">AppComponent</text>
</g>
<!-- AppModule -->
<g id="node3" class="node">
<title>AppModule</title>
<polygon fill="#8dd3c7" stroke="black" points="705.66,-187 702.66,-191 681.66,-191 678.66,-187 622.34,-187 622.34,-151 705.66,-151 705.66,-187"/>
<text text-anchor="middle" x="664" y="-164.8" font-family="Times,serif" font-size="14.00">AppModule</text>
</g>
<!-- AppComponent&#45;&gt;AppModule -->
<g id="edge1" class="edge">
<title>AppComponent&#45;&gt;AppModule</title>
<path fill="none" stroke="black" d="M1236,-122.29C1236,-144.21 1236,-178 1236,-178 1236,-178 716.06,-178 716.06,-178"/>
<polygon fill="black" stroke="black" points="716.06,-174.5 706.06,-178 716.06,-181.5 716.06,-174.5"/>
</g>
<!-- ProtectedDocumentationComponent -->
<g id="node2" class="node">
<title>ProtectedDocumentationComponent</title>
<polygon fill="#ffffb3" stroke="black" points="1165.01,-122 944.99,-122 944.99,-86 1165.01,-86 1165.01,-122"/>
<text text-anchor="middle" x="1055" y="-99.8" font-family="Times,serif" font-size="14.00">ProtectedDocumentationComponent</text>
</g>
<!-- ProtectedDocumentationComponent&#45;&gt;AppModule -->
<g id="edge2" class="edge">
<title>ProtectedDocumentationComponent&#45;&gt;AppModule</title>
<path fill="none" stroke="black" d="M1055,-122.11C1055,-141.34 1055,-169 1055,-169 1055,-169 715.84,-169 715.84,-169"/>
<polygon fill="black" stroke="black" points="715.84,-165.5 705.84,-169 715.84,-172.5 715.84,-165.5"/>
</g>
<!-- AppComponent  -->
<g id="node7" class="node">
<title>AppComponent </title>
<polygon fill="#80b1d3" stroke="black" points="718.44,-252 609.56,-252 609.56,-216 718.44,-216 718.44,-252"/>
<text text-anchor="middle" x="664" y="-229.8" font-family="Times,serif" font-size="14.00">AppComponent </text>
</g>
<!-- AppModule&#45;&gt;AppComponent  -->
<g id="edge6" class="edge">
<title>AppModule&#45;&gt;AppComponent </title>
<path fill="none" stroke="black" stroke-dasharray="1,5" d="M664,-187.11C664,-187.11 664,-205.99 664,-205.99"/>
<polygon fill="black" stroke="black" points="660.5,-205.99 664,-215.99 667.5,-205.99 660.5,-205.99"/>
</g>
<!-- AppRoutingModule -->
<g id="node4" class="node">
<title>AppRoutingModule</title>
<polygon fill="#8dd3c7" stroke="black" points="921.27,-122 918.27,-126 897.27,-126 894.27,-122 792.73,-122 792.73,-86 921.27,-86 921.27,-122"/>
<text text-anchor="middle" x="857" y="-99.8" font-family="Times,serif" font-size="14.00">AppRoutingModule</text>
</g>
<!-- AppRoutingModule&#45;&gt;AppModule -->
<g id="edge3" class="edge">
<title>AppRoutingModule&#45;&gt;AppModule</title>
<path fill="none" stroke="black" d="M857,-122.03C857,-138.4 857,-160 857,-160 857,-160 715.88,-160 715.88,-160"/>
<polygon fill="black" stroke="black" points="715.88,-156.5 705.88,-160 715.88,-163.5 715.88,-156.5"/>
</g>
<!-- LayoutsModule -->
<g id="node5" class="node">
<title>LayoutsModule</title>
<polygon fill="#8dd3c7" stroke="black" points="774.15,-122 771.15,-126 750.15,-126 747.15,-122 669.85,-122 669.85,-86 774.15,-86 774.15,-122"/>
<text text-anchor="middle" x="722" y="-99.8" font-family="Times,serif" font-size="14.00">LayoutsModule</text>
</g>
<!-- LayoutsModule&#45;&gt;AppModule -->
<g id="edge4" class="edge">
<title>LayoutsModule&#45;&gt;AppModule</title>
<path fill="none" stroke="black" d="M687.75,-122.11C687.75,-122.11 687.75,-140.99 687.75,-140.99"/>
<polygon fill="black" stroke="black" points="684.25,-140.99 687.75,-150.99 691.25,-140.99 684.25,-140.99"/>
</g>
<!-- PagesModule -->
<g id="node6" class="node">
<title>PagesModule</title>
<polygon fill="#8dd3c7" stroke="black" points="652.21,-122 649.21,-126 628.21,-126 625.21,-122 559.79,-122 559.79,-86 652.21,-86 652.21,-122"/>
<text text-anchor="middle" x="606" y="-99.8" font-family="Times,serif" font-size="14.00">PagesModule</text>
</g>
<!-- PagesModule&#45;&gt;AppModule -->
<g id="edge5" class="edge">
<title>PagesModule&#45;&gt;AppModule</title>
<path fill="none" stroke="black" d="M637.14,-122.11C637.14,-122.11 637.14,-140.99 637.14,-140.99"/>
<polygon fill="black" stroke="black" points="633.64,-140.99 637.14,-150.99 640.64,-140.99 633.64,-140.99"/>
</g>
<!-- AuthenticationService -->
<g id="node8" class="node">
<title>AuthenticationService</title>
<ellipse fill="#fdb462" stroke="black" cx="439" cy="-104" rx="97.27" ry="18"/>
<text text-anchor="middle" x="439" y="-99.8" font-family="Times,serif" font-size="14.00">AuthenticationService</text>
</g>
<!-- AuthenticationService&#45;&gt;AppModule -->
<g id="edge7" class="edge">
<title>AuthenticationService&#45;&gt;AppModule</title>
<path fill="none" stroke="black" d="M439,-122.03C439,-138.4 439,-160 439,-160 439,-160 612.21,-160 612.21,-160"/>
<polygon fill="black" stroke="black" points="612.21,-163.5 622.21,-160 612.21,-156.5 612.21,-163.5"/>
</g>
<!-- ErrorInterceptor -->
<g id="node9" class="node">
<title>ErrorInterceptor</title>
<ellipse fill="#fdb462" stroke="black" cx="250" cy="-104" rx="73.53" ry="18"/>
<text text-anchor="middle" x="250" y="-99.8" font-family="Times,serif" font-size="14.00">ErrorInterceptor</text>
</g>
<!-- ErrorInterceptor&#45;&gt;AppModule -->
<g id="edge8" class="edge">
<title>ErrorInterceptor&#45;&gt;AppModule</title>
<path fill="none" stroke="black" d="M250,-122.11C250,-141.34 250,-169 250,-169 250,-169 612.03,-169 612.03,-169"/>
<polygon fill="black" stroke="black" points="612.03,-172.5 622.03,-169 612.03,-165.5 612.03,-172.5"/>
</g>
<!-- JwtInterceptor -->
<g id="node10" class="node">
<title>JwtInterceptor</title>
<ellipse fill="#fdb462" stroke="black" cx="91" cy="-104" rx="66.61" ry="18"/>
<text text-anchor="middle" x="91" y="-99.8" font-family="Times,serif" font-size="14.00">JwtInterceptor</text>
</g>
<!-- JwtInterceptor&#45;&gt;AppModule -->
<g id="edge9" class="edge">
<title>JwtInterceptor&#45;&gt;AppModule</title>
<path fill="none" stroke="black" d="M91,-122.29C91,-144.21 91,-178 91,-178 91,-178 612.33,-178 612.33,-178"/>
<polygon fill="black" stroke="black" points="612.33,-181.5 622.33,-178 612.33,-174.5 612.33,-181.5"/>
</g>
</g>
</svg>
