<?xml version="1.0" encoding="UTF-8" standalone="no"?>
<!DOCTYPE svg PUBLIC "-//W3C//DTD SVG 1.1//EN"
 "http://www.w3.org/Graphics/SVG/1.1/DTD/svg11.dtd">
<!-- Generated by graphviz version 2.47.0 (20210316.0004)
 -->
<!-- Title: dependencies Pages: 1 -->
<svg width="939pt" height="211pt"
 viewBox="0.00 0.00 939.00 211.00" xmlns="http://www.w3.org/2000/svg" xmlns:xlink="http://www.w3.org/1999/xlink">
<g id="graph0" class="graph" transform="scale(1 1) rotate(0) translate(4 207)">
<title>dependencies</title>
<polygon fill="white" stroke="transparent" points="-4,4 -4,-207 935,-207 935,4 -4,4"/>
<text text-anchor="start" x="444.51" y="-42.4" font-family="Times-12" font-weight="bold" font-size="14.00">Legend</text>
<polygon fill="#ffffb3" stroke="transparent" points="231.5,-10 231.5,-30 251.5,-30 251.5,-10 231.5,-10"/>
<text text-anchor="start" x="255.13" y="-15.4" font-family="Times-12" font-size="14.00"> &#160;Declarations</text>
<polygon fill="#8dd3c7" stroke="transparent" points="344.5,-10 344.5,-30 364.5,-30 364.5,-10 344.5,-10"/>
<text text-anchor="start" x="368.23" y="-15.4" font-family="Times-12" font-size="14.00"> &#160;Module</text>
<polygon fill="#80b1d3" stroke="transparent" points="430.5,-10 430.5,-30 450.5,-30 450.5,-10 430.5,-10"/>
<text text-anchor="start" x="454.28" y="-15.4" font-family="Times-12" font-size="14.00"> &#160;Bootstrap</text>
<polygon fill="#fdb462" stroke="transparent" points="527.5,-10 527.5,-30 547.5,-30 547.5,-10 527.5,-10"/>
<text text-anchor="start" x="551.17" y="-15.4" font-family="Times-12" font-size="14.00"> &#160;Providers</text>
<polygon fill="#fb8072" stroke="transparent" points="623.5,-10 623.5,-30 643.5,-30 643.5,-10 623.5,-10"/>
<text text-anchor="start" x="647.23" y="-15.4" font-family="Times-12" font-size="14.00"> &#160;Exports</text>
<g id="clust1" class="cluster">
<title>cluster_IconsModule</title>
<polygon fill="none" stroke="black" stroke-dasharray="1,5" points="8,-70 8,-195 923,-195 923,-70 8,-70"/>
</g>
<g id="clust2" class="cluster">
<title>cluster_IconsModule_declarations</title>
<polygon fill="none" stroke="black" points="266,-78 266,-130 915,-130 915,-78 266,-78"/>
</g>
<g id="clust7" class="cluster">
<title>cluster_IconsModule_imports</title>
<polygon fill="none" stroke="black" points="16,-78 16,-130 258,-130 258,-78 16,-78"/>
</g>
<!-- DripiconsComponent -->
<g id="node1" class="node">
<title>DripiconsComponent</title>
<polygon fill="#ffffb3" stroke="black" points="907.04,-122 770.96,-122 770.96,-86 907.04,-86 907.04,-122"/>
<text text-anchor="middle" x="839" y="-99.8" font-family="Times,serif" font-size="14.00">DripiconsComponent</text>
</g>
<!-- IconsModule -->
<g id="node5" class="node">
<title>IconsModule</title>
<polygon fill="#8dd3c7" stroke="black" points="457.87,-187 454.87,-191 433.87,-191 430.87,-187 368.13,-187 368.13,-151 457.87,-151 457.87,-187"/>
<text text-anchor="middle" x="413" y="-164.8" font-family="Times,serif" font-size="14.00">IconsModule</text>
</g>
<!-- DripiconsComponent&#45;&gt;IconsModule -->
<g id="edge1" class="edge">
<title>DripiconsComponent&#45;&gt;IconsModule</title>
<path fill="none" stroke="black" d="M839,-122.28C839,-143.32 839,-175 839,-175 839,-175 468.19,-175 468.19,-175"/>
<polygon fill="black" stroke="black" points="468.19,-171.5 458.19,-175 468.19,-178.5 468.19,-171.5"/>
</g>
<!-- FontawesomeComponent -->
<g id="node2" class="node">
<title>FontawesomeComponent</title>
<polygon fill="#ffffb3" stroke="black" points="752.59,-122 593.41,-122 593.41,-86 752.59,-86 752.59,-122"/>
<text text-anchor="middle" x="673" y="-99.8" font-family="Times,serif" font-size="14.00">FontawesomeComponent</text>
</g>
<!-- FontawesomeComponent&#45;&gt;IconsModule -->
<g id="edge2" class="edge">
<title>FontawesomeComponent&#45;&gt;IconsModule</title>
<path fill="none" stroke="black" d="M673,-122.02C673,-139.37 673,-163 673,-163 673,-163 467.99,-163 467.99,-163"/>
<polygon fill="black" stroke="black" points="467.99,-159.5 457.99,-163 467.99,-166.5 467.99,-159.5"/>
</g>
<!-- MaterialdesignComponent -->
<g id="node3" class="node">
<title>MaterialdesignComponent</title>
<polygon fill="#ffffb3" stroke="black" points="575.8,-122 410.2,-122 410.2,-86 575.8,-86 575.8,-122"/>
<text text-anchor="middle" x="493" y="-99.8" font-family="Times,serif" font-size="14.00">MaterialdesignComponent</text>
</g>
<!-- MaterialdesignComponent&#45;&gt;IconsModule -->
<g id="edge3" class="edge">
<title>MaterialdesignComponent&#45;&gt;IconsModule</title>
<path fill="none" stroke="black" d="M434.14,-122.11C434.14,-122.11 434.14,-140.99 434.14,-140.99"/>
<polygon fill="black" stroke="black" points="430.64,-140.99 434.14,-150.99 437.64,-140.99 430.64,-140.99"/>
</g>
<!-- RemixComponent -->
<g id="node4" class="node">
<title>RemixComponent</title>
<polygon fill="#ffffb3" stroke="black" points="392.17,-122 273.83,-122 273.83,-86 392.17,-86 392.17,-122"/>
<text text-anchor="middle" x="333" y="-99.8" font-family="Times,serif" font-size="14.00">RemixComponent</text>
</g>
<!-- RemixComponent&#45;&gt;IconsModule -->
<g id="edge4" class="edge">
<title>RemixComponent&#45;&gt;IconsModule</title>
<path fill="none" stroke="black" d="M380.2,-122.11C380.2,-122.11 380.2,-140.99 380.2,-140.99"/>
<polygon fill="black" stroke="black" points="376.7,-140.99 380.2,-150.99 383.7,-140.99 376.7,-140.99"/>
</g>
<!-- IconsRoutingModule -->
<g id="node6" class="node">
<title>IconsRoutingModule</title>
<polygon fill="#8dd3c7" stroke="black" points="250.49,-122 247.49,-126 226.49,-126 223.49,-122 115.51,-122 115.51,-86 250.49,-86 250.49,-122"/>
<text text-anchor="middle" x="183" y="-99.8" font-family="Times,serif" font-size="14.00">IconsRoutingModule</text>
</g>
<!-- IconsRoutingModule&#45;&gt;IconsModule -->
<g id="edge5" class="edge">
<title>IconsRoutingModule&#45;&gt;IconsModule</title>
<path fill="none" stroke="black" d="M183,-122.02C183,-139.37 183,-163 183,-163 183,-163 358.11,-163 358.11,-163"/>
<polygon fill="black" stroke="black" points="358.11,-166.5 368.11,-163 358.11,-159.5 358.11,-166.5"/>
</g>
<!-- UiModule -->
<g id="node7" class="node">
<title>UiModule</title>
<polygon fill="#8dd3c7" stroke="black" points="97.55,-122 94.55,-126 73.55,-126 70.55,-122 24.45,-122 24.45,-86 97.55,-86 97.55,-122"/>
<text text-anchor="middle" x="61" y="-99.8" font-family="Times,serif" font-size="14.00">UiModule</text>
</g>
<!-- UiModule&#45;&gt;IconsModule -->
<g id="edge6" class="edge">
<title>UiModule&#45;&gt;IconsModule</title>
<path fill="none" stroke="black" d="M61,-122.28C61,-143.32 61,-175 61,-175 61,-175 358.06,-175 358.06,-175"/>
<polygon fill="black" stroke="black" points="358.06,-178.5 368.06,-175 358.06,-171.5 358.06,-178.5"/>
</g>
</g>
</svg>
