<?xml version="1.0" encoding="UTF-8" standalone="no"?>
<!DOCTYPE svg PUBLIC "-//W3C//DTD SVG 1.1//EN"
 "http://www.w3.org/Graphics/SVG/1.1/DTD/svg11.dtd">
<!-- Generated by graphviz version 2.47.0 (20210316.0004)
 -->
<!-- Title: dependencies Pages: 1 -->
<svg width="1101pt" height="284pt"
 viewBox="0.00 0.00 1101.00 284.00" xmlns="http://www.w3.org/2000/svg" xmlns:xlink="http://www.w3.org/1999/xlink">
<g id="graph0" class="graph" transform="scale(1 1) rotate(0) translate(4 280)">
<title>dependencies</title>
<polygon fill="white" stroke="transparent" points="-4,4 -4,-280 1097,-280 1097,4 -4,4"/>
<text text-anchor="start" x="525.51" y="-42.4" font-family="Times-12" font-weight="bold" font-size="14.00">Legend</text>
<polygon fill="#ffffb3" stroke="transparent" points="312.5,-10 312.5,-30 332.5,-30 332.5,-10 312.5,-10"/>
<text text-anchor="start" x="336.13" y="-15.4" font-family="Times-12" font-size="14.00"> &#160;Declarations</text>
<polygon fill="#8dd3c7" stroke="transparent" points="425.5,-10 425.5,-30 445.5,-30 445.5,-10 425.5,-10"/>
<text text-anchor="start" x="449.23" y="-15.4" font-family="Times-12" font-size="14.00"> &#160;Module</text>
<polygon fill="#80b1d3" stroke="transparent" points="511.5,-10 511.5,-30 531.5,-30 531.5,-10 511.5,-10"/>
<text text-anchor="start" x="535.28" y="-15.4" font-family="Times-12" font-size="14.00"> &#160;Bootstrap</text>
<polygon fill="#fdb462" stroke="transparent" points="608.5,-10 608.5,-30 628.5,-30 628.5,-10 608.5,-10"/>
<text text-anchor="start" x="632.17" y="-15.4" font-family="Times-12" font-size="14.00"> &#160;Providers</text>
<polygon fill="#fb8072" stroke="transparent" points="704.5,-10 704.5,-30 724.5,-30 724.5,-10 704.5,-10"/>
<text text-anchor="start" x="728.23" y="-15.4" font-family="Times-12" font-size="14.00"> &#160;Exports</text>
<g id="clust1" class="cluster">
<title>cluster_AppModule</title>
<polygon fill="none" stroke="black" stroke-dasharray="1,5" points="8,-70 8,-268 1085,-268 1085,-70 8,-70"/>
</g>
<g id="clust7" class="cluster">
<title>cluster_AppModule_providers</title>
<polygon fill="none" stroke="black" points="531,-78 531,-130 1077,-130 1077,-78 531,-78"/>
</g>
<g id="clust2" class="cluster">
<title>cluster_AppModule_declarations</title>
<polygon fill="none" stroke="black" points="401,-78 401,-130 523,-130 523,-78 401,-78"/>
</g>
<g id="clust6" class="cluster">
<title>cluster_AppModule_bootstrap</title>
<polygon fill="none" stroke="black" points="400,-208 400,-260 524,-260 524,-208 400,-208"/>
</g>
<g id="clust4" class="cluster">
<title>cluster_AppModule_imports</title>
<polygon fill="none" stroke="black" points="16,-78 16,-130 393,-130 393,-78 16,-78"/>
</g>
<!-- AppComponent -->
<g id="node1" class="node">
<title>AppComponent</title>
<polygon fill="#ffffb3" stroke="black" points="514.94,-122 409.06,-122 409.06,-86 514.94,-86 514.94,-122"/>
<text text-anchor="middle" x="462" y="-99.8" font-family="Times,serif" font-size="14.00">AppComponent</text>
</g>
<!-- AppModule -->
<g id="node2" class="node">
<title>AppModule</title>
<polygon fill="#8dd3c7" stroke="black" points="503.66,-187 500.66,-191 479.66,-191 476.66,-187 420.34,-187 420.34,-151 503.66,-151 503.66,-187"/>
<text text-anchor="middle" x="462" y="-164.8" font-family="Times,serif" font-size="14.00">AppModule</text>
</g>
<!-- AppComponent&#45;&gt;AppModule -->
<g id="edge1" class="edge">
<title>AppComponent&#45;&gt;AppModule</title>
<path fill="none" stroke="black" d="M462,-122.11C462,-122.11 462,-140.99 462,-140.99"/>
<polygon fill="black" stroke="black" points="458.5,-140.99 462,-150.99 465.5,-140.99 458.5,-140.99"/>
</g>
<!-- AppComponent  -->
<g id="node6" class="node">
<title>AppComponent </title>
<polygon fill="#80b1d3" stroke="black" points="516.44,-252 407.56,-252 407.56,-216 516.44,-216 516.44,-252"/>
<text text-anchor="middle" x="462" y="-229.8" font-family="Times,serif" font-size="14.00">AppComponent </text>
</g>
<!-- AppModule&#45;&gt;AppComponent  -->
<g id="edge5" class="edge">
<title>AppModule&#45;&gt;AppComponent </title>
<path fill="none" stroke="black" stroke-dasharray="1,5" d="M462,-187.11C462,-187.11 462,-205.99 462,-205.99"/>
<polygon fill="black" stroke="black" points="458.5,-205.99 462,-215.99 465.5,-205.99 458.5,-205.99"/>
</g>
<!-- AppRoutingModule -->
<g id="node3" class="node">
<title>AppRoutingModule</title>
<polygon fill="#8dd3c7" stroke="black" points="385.27,-122 382.27,-126 361.27,-126 358.27,-122 256.73,-122 256.73,-86 385.27,-86 385.27,-122"/>
<text text-anchor="middle" x="321" y="-99.8" font-family="Times,serif" font-size="14.00">AppRoutingModule</text>
</g>
<!-- AppRoutingModule&#45;&gt;AppModule -->
<g id="edge2" class="edge">
<title>AppRoutingModule&#45;&gt;AppModule</title>
<path fill="none" stroke="black" d="M321,-122.03C321,-138.4 321,-160 321,-160 321,-160 410.08,-160 410.08,-160"/>
<polygon fill="black" stroke="black" points="410.08,-163.5 420.08,-160 410.08,-156.5 410.08,-163.5"/>
</g>
<!-- LayoutsModule -->
<g id="node4" class="node">
<title>LayoutsModule</title>
<polygon fill="#8dd3c7" stroke="black" points="238.15,-122 235.15,-126 214.15,-126 211.15,-122 133.85,-122 133.85,-86 238.15,-86 238.15,-122"/>
<text text-anchor="middle" x="186" y="-99.8" font-family="Times,serif" font-size="14.00">LayoutsModule</text>
</g>
<!-- LayoutsModule&#45;&gt;AppModule -->
<g id="edge3" class="edge">
<title>LayoutsModule&#45;&gt;AppModule</title>
<path fill="none" stroke="black" d="M186,-122.11C186,-141.34 186,-169 186,-169 186,-169 410.08,-169 410.08,-169"/>
<polygon fill="black" stroke="black" points="410.08,-172.5 420.08,-169 410.08,-165.5 410.08,-172.5"/>
</g>
<!-- PagesModule -->
<g id="node5" class="node">
<title>PagesModule</title>
<polygon fill="#8dd3c7" stroke="black" points="116.21,-122 113.21,-126 92.21,-126 89.21,-122 23.79,-122 23.79,-86 116.21,-86 116.21,-122"/>
<text text-anchor="middle" x="70" y="-99.8" font-family="Times,serif" font-size="14.00">PagesModule</text>
</g>
<!-- PagesModule&#45;&gt;AppModule -->
<g id="edge4" class="edge">
<title>PagesModule&#45;&gt;AppModule</title>
<path fill="none" stroke="black" d="M70,-122.29C70,-144.21 70,-178 70,-178 70,-178 410.05,-178 410.05,-178"/>
<polygon fill="black" stroke="black" points="410.05,-181.5 420.05,-178 410.05,-174.5 410.05,-181.5"/>
</g>
<!-- ErrorInterceptor -->
<g id="node7" class="node">
<title>ErrorInterceptor</title>
<ellipse fill="#fdb462" stroke="black" cx="995" cy="-104" rx="73.53" ry="18"/>
<text text-anchor="middle" x="995" y="-99.8" font-family="Times,serif" font-size="14.00">ErrorInterceptor</text>
</g>
<!-- ErrorInterceptor&#45;&gt;AppModule -->
<g id="edge6" class="edge">
<title>ErrorInterceptor&#45;&gt;AppModule</title>
<path fill="none" stroke="black" d="M995,-122.29C995,-144.21 995,-178 995,-178 995,-178 513.82,-178 513.82,-178"/>
<polygon fill="black" stroke="black" points="513.82,-174.5 503.82,-178 513.82,-181.5 513.82,-174.5"/>
</g>
<!-- FakeBackendInterceptor -->
<g id="node8" class="node">
<title>FakeBackendInterceptor</title>
<ellipse fill="#fdb462" stroke="black" cx="797" cy="-104" rx="105.9" ry="18"/>
<text text-anchor="middle" x="797" y="-99.8" font-family="Times,serif" font-size="14.00">FakeBackendInterceptor</text>
</g>
<!-- FakeBackendInterceptor&#45;&gt;AppModule -->
<g id="edge7" class="edge">
<title>FakeBackendInterceptor&#45;&gt;AppModule</title>
<path fill="none" stroke="black" d="M797,-122.11C797,-141.34 797,-169 797,-169 797,-169 513.75,-169 513.75,-169"/>
<polygon fill="black" stroke="black" points="513.75,-165.5 503.75,-169 513.75,-172.5 513.75,-165.5"/>
</g>
<!-- JwtInterceptor -->
<g id="node9" class="node">
<title>JwtInterceptor</title>
<ellipse fill="#fdb462" stroke="black" cx="606" cy="-104" rx="66.61" ry="18"/>
<text text-anchor="middle" x="606" y="-99.8" font-family="Times,serif" font-size="14.00">JwtInterceptor</text>
</g>
<!-- JwtInterceptor&#45;&gt;AppModule -->
<g id="edge8" class="edge">
<title>JwtInterceptor&#45;&gt;AppModule</title>
<path fill="none" stroke="black" d="M606,-122.03C606,-138.4 606,-160 606,-160 606,-160 514.04,-160 514.04,-160"/>
<polygon fill="black" stroke="black" points="514.04,-156.5 504.04,-160 514.04,-163.5 514.04,-156.5"/>
</g>
</g>
</svg>
