<?xml version="1.0" encoding="UTF-8" standalone="no"?>
<!DOCTYPE svg PUBLIC "-//W3C//DTD SVG 1.1//EN"
 "http://www.w3.org/Graphics/SVG/1.1/DTD/svg11.dtd">
<!-- Generated by graphviz version 2.47.0 (20210316.0004)
 -->
<!-- Title: dependencies Pages: 1 -->
<svg width="772pt" height="284pt"
 viewBox="0.00 0.00 772.00 284.00" xmlns="http://www.w3.org/2000/svg" xmlns:xlink="http://www.w3.org/1999/xlink">
<g id="graph0" class="graph" transform="scale(1 1) rotate(0) translate(4 280)">
<title>dependencies</title>
<polygon fill="white" stroke="transparent" points="-4,4 -4,-280 768,-280 768,4 -4,4"/>
<text text-anchor="start" x="361.01" y="-42.4" font-family="Times-12" font-weight="bold" font-size="14.00">Legend</text>
<polygon fill="#ffffb3" stroke="transparent" points="148,-10 148,-30 168,-30 168,-10 148,-10"/>
<text text-anchor="start" x="171.63" y="-15.4" font-family="Times-12" font-size="14.00"> &#160;Declarations</text>
<polygon fill="#8dd3c7" stroke="transparent" points="261,-10 261,-30 281,-30 281,-10 261,-10"/>
<text text-anchor="start" x="284.73" y="-15.4" font-family="Times-12" font-size="14.00"> &#160;Module</text>
<polygon fill="#80b1d3" stroke="transparent" points="347,-10 347,-30 367,-30 367,-10 347,-10"/>
<text text-anchor="start" x="370.78" y="-15.4" font-family="Times-12" font-size="14.00"> &#160;Bootstrap</text>
<polygon fill="#fdb462" stroke="transparent" points="444,-10 444,-30 464,-30 464,-10 444,-10"/>
<text text-anchor="start" x="467.67" y="-15.4" font-family="Times-12" font-size="14.00"> &#160;Providers</text>
<polygon fill="#fb8072" stroke="transparent" points="540,-10 540,-30 560,-30 560,-10 540,-10"/>
<text text-anchor="start" x="563.73" y="-15.4" font-family="Times-12" font-size="14.00"> &#160;Exports</text>
<g id="clust1" class="cluster">
<title>cluster_LayoutsModule</title>
<polygon fill="none" stroke="black" stroke-dasharray="1,5" points="8,-70 8,-268 756,-268 756,-70 8,-70"/>
</g>
<g id="clust7" class="cluster">
<title>cluster_LayoutsModule_imports</title>
<polygon fill="none" stroke="black" points="634,-78 634,-130 748,-130 748,-78 634,-78"/>
</g>
<g id="clust2" class="cluster">
<title>cluster_LayoutsModule_declarations</title>
<polygon fill="none" stroke="black" points="16,-78 16,-130 626,-130 626,-78 16,-78"/>
</g>
<g id="clust8" class="cluster">
<title>cluster_LayoutsModule_exports</title>
<polygon fill="none" stroke="black" points="248,-208 248,-260 556,-260 556,-208 248,-208"/>
</g>
<!-- HorizontalComponent -->
<g id="node1" class="node">
<title>HorizontalComponent</title>
<polygon fill="#ffffb3" stroke="black" points="617.7,-122 476.3,-122 476.3,-86 617.7,-86 617.7,-122"/>
<text text-anchor="middle" x="547" y="-99.8" font-family="Times,serif" font-size="14.00">HorizontalComponent</text>
</g>
<!-- LayoutsModule -->
<g id="node5" class="node">
<title>LayoutsModule</title>
<polygon fill="#8dd3c7" stroke="black" points="450.15,-187 447.15,-191 426.15,-191 423.15,-187 345.85,-187 345.85,-151 450.15,-151 450.15,-187"/>
<text text-anchor="middle" x="398" y="-164.8" font-family="Times,serif" font-size="14.00">LayoutsModule</text>
</g>
<!-- HorizontalComponent&#45;&gt;LayoutsModule -->
<g id="edge1" class="edge">
<title>HorizontalComponent&#45;&gt;LayoutsModule</title>
<path fill="none" stroke="black" d="M512.38,-122.02C512.38,-139.37 512.38,-163 512.38,-163 512.38,-163 460.17,-163 460.17,-163"/>
<polygon fill="black" stroke="black" points="460.17,-159.5 450.17,-163 460.17,-166.5 460.17,-159.5"/>
</g>
<!-- LayoutComponent -->
<g id="node2" class="node">
<title>LayoutComponent</title>
<polygon fill="#ffffb3" stroke="black" points="458.49,-122 337.51,-122 337.51,-86 458.49,-86 458.49,-122"/>
<text text-anchor="middle" x="398" y="-99.8" font-family="Times,serif" font-size="14.00">LayoutComponent</text>
</g>
<!-- LayoutComponent&#45;&gt;LayoutsModule -->
<g id="edge2" class="edge">
<title>LayoutComponent&#45;&gt;LayoutsModule</title>
<path fill="none" stroke="black" d="M398,-122.11C398,-122.11 398,-140.99 398,-140.99"/>
<polygon fill="black" stroke="black" points="394.5,-140.99 398,-150.99 401.5,-140.99 394.5,-140.99"/>
</g>
<!-- UserInfoBarComponent -->
<g id="node3" class="node">
<title>UserInfoBarComponent</title>
<polygon fill="#ffffb3" stroke="black" points="319.79,-122 168.21,-122 168.21,-86 319.79,-86 319.79,-122"/>
<text text-anchor="middle" x="244" y="-99.8" font-family="Times,serif" font-size="14.00">UserInfoBarComponent</text>
</g>
<!-- UserInfoBarComponent&#45;&gt;LayoutsModule -->
<g id="edge3" class="edge">
<title>UserInfoBarComponent&#45;&gt;LayoutsModule</title>
<path fill="none" stroke="black" d="M287.84,-122.02C287.84,-139.37 287.84,-163 287.84,-163 287.84,-163 335.83,-163 335.83,-163"/>
<polygon fill="black" stroke="black" points="335.83,-166.5 345.83,-163 335.83,-159.5 335.83,-166.5"/>
</g>
<!-- VerticalComponent -->
<g id="node4" class="node">
<title>VerticalComponent</title>
<polygon fill="#ffffb3" stroke="black" points="150.42,-122 23.58,-122 23.58,-86 150.42,-86 150.42,-122"/>
<text text-anchor="middle" x="87" y="-99.8" font-family="Times,serif" font-size="14.00">VerticalComponent</text>
</g>
<!-- VerticalComponent&#45;&gt;LayoutsModule -->
<g id="edge4" class="edge">
<title>VerticalComponent&#45;&gt;LayoutsModule</title>
<path fill="none" stroke="black" d="M87,-122.28C87,-143.32 87,-175 87,-175 87,-175 335.59,-175 335.59,-175"/>
<polygon fill="black" stroke="black" points="335.59,-178.5 345.59,-175 335.59,-171.5 335.59,-178.5"/>
</g>
<!-- HorizontalComponent  -->
<g id="node7" class="node">
<title>HorizontalComponent </title>
<polygon fill="#fb8072" stroke="black" points="548.2,-252 403.8,-252 403.8,-216 548.2,-216 548.2,-252"/>
<text text-anchor="middle" x="476" y="-229.8" font-family="Times,serif" font-size="14.00">HorizontalComponent </text>
</g>
<!-- LayoutsModule&#45;&gt;HorizontalComponent  -->
<g id="edge6" class="edge">
<title>LayoutsModule&#45;&gt;HorizontalComponent </title>
<path fill="none" stroke="black" stroke-dasharray="5,2" d="M426.99,-187.11C426.99,-187.11 426.99,-205.99 426.99,-205.99"/>
<polygon fill="black" stroke="black" points="423.49,-205.99 426.99,-215.99 430.49,-205.99 423.49,-205.99"/>
</g>
<!-- VerticalComponent  -->
<g id="node8" class="node">
<title>VerticalComponent </title>
<polygon fill="#fb8072" stroke="black" points="385.92,-252 256.08,-252 256.08,-216 385.92,-216 385.92,-252"/>
<text text-anchor="middle" x="321" y="-229.8" font-family="Times,serif" font-size="14.00">VerticalComponent </text>
</g>
<!-- LayoutsModule&#45;&gt;VerticalComponent  -->
<g id="edge7" class="edge">
<title>LayoutsModule&#45;&gt;VerticalComponent </title>
<path fill="none" stroke="black" stroke-dasharray="5,2" d="M365.82,-187.11C365.82,-187.11 365.82,-205.99 365.82,-205.99"/>
<polygon fill="black" stroke="black" points="362.32,-205.99 365.82,-215.99 369.32,-205.99 362.32,-205.99"/>
</g>
<!-- SharedModule -->
<g id="node6" class="node">
<title>SharedModule</title>
<polygon fill="#8dd3c7" stroke="black" points="740.42,-122 737.42,-126 716.42,-126 713.42,-122 641.58,-122 641.58,-86 740.42,-86 740.42,-122"/>
<text text-anchor="middle" x="691" y="-99.8" font-family="Times,serif" font-size="14.00">SharedModule</text>
</g>
<!-- SharedModule&#45;&gt;LayoutsModule -->
<g id="edge5" class="edge">
<title>SharedModule&#45;&gt;LayoutsModule</title>
<path fill="none" stroke="black" d="M691,-122.28C691,-143.32 691,-175 691,-175 691,-175 460.38,-175 460.38,-175"/>
<polygon fill="black" stroke="black" points="460.38,-171.5 450.38,-175 460.38,-178.5 460.38,-171.5"/>
</g>
</g>
</svg>
