<?xml version="1.0" encoding="UTF-8" standalone="no"?>
<!DOCTYPE svg PUBLIC "-//W3C//DTD SVG 1.1//EN"
 "http://www.w3.org/Graphics/SVG/1.1/DTD/svg11.dtd">
<!-- Generated by graphviz version 2.47.0 (20210316.0004)
 -->
<!-- Title: dependencies Pages: 1 -->
<svg width="603pt" height="284pt"
 viewBox="0.00 0.00 603.00 284.00" xmlns="http://www.w3.org/2000/svg" xmlns:xlink="http://www.w3.org/1999/xlink">
<g id="graph0" class="graph" transform="scale(1 1) rotate(0) translate(4 280)">
<title>dependencies</title>
<polygon fill="white" stroke="transparent" points="-4,4 -4,-280 599,-280 599,4 -4,4"/>
<text text-anchor="start" x="276.51" y="-42.4" font-family="Times-12" font-weight="bold" font-size="14.00">Legend</text>
<polygon fill="#ffffb3" stroke="transparent" points="63.5,-10 63.5,-30 83.5,-30 83.5,-10 63.5,-10"/>
<text text-anchor="start" x="87.13" y="-15.4" font-family="Times-12" font-size="14.00"> &#160;Declarations</text>
<polygon fill="#8dd3c7" stroke="transparent" points="176.5,-10 176.5,-30 196.5,-30 196.5,-10 176.5,-10"/>
<text text-anchor="start" x="200.23" y="-15.4" font-family="Times-12" font-size="14.00"> &#160;Module</text>
<polygon fill="#80b1d3" stroke="transparent" points="262.5,-10 262.5,-30 282.5,-30 282.5,-10 262.5,-10"/>
<text text-anchor="start" x="286.28" y="-15.4" font-family="Times-12" font-size="14.00"> &#160;Bootstrap</text>
<polygon fill="#fdb462" stroke="transparent" points="359.5,-10 359.5,-30 379.5,-30 379.5,-10 359.5,-10"/>
<text text-anchor="start" x="383.17" y="-15.4" font-family="Times-12" font-size="14.00"> &#160;Providers</text>
<polygon fill="#fb8072" stroke="transparent" points="455.5,-10 455.5,-30 475.5,-30 475.5,-10 455.5,-10"/>
<text text-anchor="start" x="479.23" y="-15.4" font-family="Times-12" font-size="14.00"> &#160;Exports</text>
<g id="clust1" class="cluster">
<title>cluster_LayoutsModule</title>
<polygon fill="none" stroke="black" stroke-dasharray="1,5" points="8,-70 8,-268 587,-268 587,-70 8,-70"/>
</g>
<g id="clust6" class="cluster">
<title>cluster_LayoutsModule_imports</title>
<polygon fill="none" stroke="black" points="465,-78 465,-130 579,-130 579,-78 465,-78"/>
</g>
<g id="clust7" class="cluster">
<title>cluster_LayoutsModule_exports</title>
<polygon fill="none" stroke="black" points="136,-208 136,-260 444,-260 444,-208 136,-208"/>
</g>
<g id="clust2" class="cluster">
<title>cluster_LayoutsModule_declarations</title>
<polygon fill="none" stroke="black" points="16,-78 16,-130 457,-130 457,-78 16,-78"/>
</g>
<!-- HorizontalComponent -->
<g id="node1" class="node">
<title>HorizontalComponent</title>
<polygon fill="#ffffb3" stroke="black" points="448.7,-122 307.3,-122 307.3,-86 448.7,-86 448.7,-122"/>
<text text-anchor="middle" x="378" y="-99.8" font-family="Times,serif" font-size="14.00">HorizontalComponent</text>
</g>
<!-- LayoutsModule -->
<g id="node4" class="node">
<title>LayoutsModule</title>
<polygon fill="#8dd3c7" stroke="black" points="338.15,-187 335.15,-191 314.15,-191 311.15,-187 233.85,-187 233.85,-151 338.15,-151 338.15,-187"/>
<text text-anchor="middle" x="286" y="-164.8" font-family="Times,serif" font-size="14.00">LayoutsModule</text>
</g>
<!-- HorizontalComponent&#45;&gt;LayoutsModule -->
<g id="edge1" class="edge">
<title>HorizontalComponent&#45;&gt;LayoutsModule</title>
<path fill="none" stroke="black" d="M322.86,-122.11C322.86,-122.11 322.86,-140.99 322.86,-140.99"/>
<polygon fill="black" stroke="black" points="319.36,-140.99 322.86,-150.99 326.36,-140.99 319.36,-140.99"/>
</g>
<!-- LayoutComponent -->
<g id="node2" class="node">
<title>LayoutComponent</title>
<polygon fill="#ffffb3" stroke="black" points="289.49,-122 168.51,-122 168.51,-86 289.49,-86 289.49,-122"/>
<text text-anchor="middle" x="229" y="-99.8" font-family="Times,serif" font-size="14.00">LayoutComponent</text>
</g>
<!-- LayoutComponent&#45;&gt;LayoutsModule -->
<g id="edge2" class="edge">
<title>LayoutComponent&#45;&gt;LayoutsModule</title>
<path fill="none" stroke="black" d="M261.58,-122.11C261.58,-122.11 261.58,-140.99 261.58,-140.99"/>
<polygon fill="black" stroke="black" points="258.08,-140.99 261.58,-150.99 265.08,-140.99 258.08,-140.99"/>
</g>
<!-- VerticalComponent -->
<g id="node3" class="node">
<title>VerticalComponent</title>
<polygon fill="#ffffb3" stroke="black" points="150.42,-122 23.58,-122 23.58,-86 150.42,-86 150.42,-122"/>
<text text-anchor="middle" x="87" y="-99.8" font-family="Times,serif" font-size="14.00">VerticalComponent</text>
</g>
<!-- VerticalComponent&#45;&gt;LayoutsModule -->
<g id="edge3" class="edge">
<title>VerticalComponent&#45;&gt;LayoutsModule</title>
<path fill="none" stroke="black" d="M83.92,-122.11C83.92,-141.34 83.92,-169 83.92,-169 83.92,-169 223.7,-169 223.7,-169"/>
<polygon fill="black" stroke="black" points="223.7,-172.5 233.7,-169 223.7,-165.5 223.7,-172.5"/>
</g>
<!-- HorizontalComponent  -->
<g id="node6" class="node">
<title>HorizontalComponent </title>
<polygon fill="#fb8072" stroke="black" points="436.2,-252 291.8,-252 291.8,-216 436.2,-216 436.2,-252"/>
<text text-anchor="middle" x="364" y="-229.8" font-family="Times,serif" font-size="14.00">HorizontalComponent </text>
</g>
<!-- LayoutsModule&#45;&gt;HorizontalComponent  -->
<g id="edge5" class="edge">
<title>LayoutsModule&#45;&gt;HorizontalComponent </title>
<path fill="none" stroke="black" stroke-dasharray="5,2" d="M314.99,-187.11C314.99,-187.11 314.99,-205.99 314.99,-205.99"/>
<polygon fill="black" stroke="black" points="311.49,-205.99 314.99,-215.99 318.49,-205.99 311.49,-205.99"/>
</g>
<!-- VerticalComponent  -->
<g id="node7" class="node">
<title>VerticalComponent </title>
<polygon fill="#fb8072" stroke="black" points="273.92,-252 144.08,-252 144.08,-216 273.92,-216 273.92,-252"/>
<text text-anchor="middle" x="209" y="-229.8" font-family="Times,serif" font-size="14.00">VerticalComponent </text>
</g>
<!-- LayoutsModule&#45;&gt;VerticalComponent  -->
<g id="edge6" class="edge">
<title>LayoutsModule&#45;&gt;VerticalComponent </title>
<path fill="none" stroke="black" stroke-dasharray="5,2" d="M253.82,-187.11C253.82,-187.11 253.82,-205.99 253.82,-205.99"/>
<polygon fill="black" stroke="black" points="250.32,-205.99 253.82,-215.99 257.32,-205.99 250.32,-205.99"/>
</g>
<!-- SharedModule -->
<g id="node5" class="node">
<title>SharedModule</title>
<polygon fill="#8dd3c7" stroke="black" points="571.42,-122 568.42,-126 547.42,-126 544.42,-122 472.58,-122 472.58,-86 571.42,-86 571.42,-122"/>
<text text-anchor="middle" x="522" y="-99.8" font-family="Times,serif" font-size="14.00">SharedModule</text>
</g>
<!-- SharedModule&#45;&gt;LayoutsModule -->
<g id="edge4" class="edge">
<title>SharedModule&#45;&gt;LayoutsModule</title>
<path fill="none" stroke="black" d="M522,-122.11C522,-141.34 522,-169 522,-169 522,-169 348.38,-169 348.38,-169"/>
<polygon fill="black" stroke="black" points="348.38,-165.5 338.38,-169 348.38,-172.5 348.38,-165.5"/>
</g>
</g>
</svg>
